<?xml version="1.0" standalone="no"?>
<!DOCTYPE svg PUBLIC "-//W3C//DTD SVG 20010904//EN"
 "http://www.w3.org/TR/2001/REC-SVG-20010904/DTD/svg10.dtd">
<svg version="1.0" xmlns="http://www.w3.org/2000/svg"
 width="1126.000000pt" height="1259.000000pt" viewBox="0 0 1126.000000 1259.000000"
 preserveAspectRatio="xMidYMid meet">

<g transform="translate(0.000000,1259.000000) scale(0.100000,-0.100000)"
fill="#000000" stroke="none">
<path d="M1701 11904 c0 -11 3 -14 6 -6 3 7 2 16 -1 19 -3 4 -6 -2 -5 -13z"/>
<path d="M1670 11256 c0 -13 -4 -26 -8 -28 -16 -7 -58 -75 -75 -123 -10 -28
-17 -75 -16 -105 0 -30 -2 -73 -5 -95 -13 -83 -14 -80 22 -79 28 2 32 -1 32
-25 0 -35 10 -47 43 -53 15 -3 25 -3 22 0 -2 3 0 11 6 18 6 8 9 21 5 29 -3 9
1 18 9 21 10 4 15 20 15 50 0 24 4 44 9 44 5 0 13 9 16 20 4 11 10 18 15 15 9
-6 20 26 26 79 5 47 12 56 24 36 8 -12 10 -10 10 8 0 12 6 25 13 27 11 5 13
46 8 153 -1 7 -16 12 -41 12 -22 0 -40 3 -40 8 0 4 -20 8 -45 10 -42 2 -45 0
-45 -22z m27 -408 c-3 -8 -6 -5 -6 6 -1 11 2 17 5 13 3 -3 4 -12 1 -19z"/>
<path d="M1614 10659 c-3 -6 -1 -16 5 -22 8 -8 11 -5 11 11 0 24 -5 28 -16 11z"/>
<path d="M3530 10488 c-5 -13 -9 -17 -9 -10 -1 22 -41 -6 -41 -30 0 -16 5 -19
25 -16 13 3 26 1 28 -5 1 -5 21 1 42 13 l40 22 -32 -6 c-19 -3 -33 -1 -33 4 0
6 9 10 19 10 11 0 23 4 26 10 4 6 -6 7 -25 4 -30 -6 -43 9 -17 19 9 4 9 6 -1
6 -7 1 -17 -9 -22 -21z"/>
<path d="M3645 10484 c9 -9 19 -13 23 -10 3 4 0 11 -8 16 -24 15 -33 11 -15
-6z"/>
<path d="M1547 10343 c-10 -17 -9 -208 3 -273 11 -66 34 -149 76 -275 26 -79
48 -238 33 -243 -12 -5 -12 -82 0 -82 5 0 11 -20 12 -44 2 -24 1 -42 -2 -40
-4 2 -10 -7 -13 -21 -8 -30 -22 -32 -31 -5 -7 21 -25 28 -25 10 0 -5 -18 -10
-40 -10 -33 0 -40 3 -40 20 0 18 -7 20 -59 20 -32 0 -85 -3 -119 -6 l-61 -7
-4 -36 c-2 -20 -3 -8 0 27 l4 62 -41 0 -40 0 0 40 c0 39 -1 40 -35 40 -19 0
-35 4 -35 9 0 11 -62 51 -79 51 -6 0 -11 -7 -11 -15 0 -11 -11 -15 -40 -15
-22 0 -40 -4 -40 -10 0 -6 -33 -10 -80 -10 -50 0 -80 4 -80 11 0 6 -12 9 -27
7 -24 -3 -28 -8 -31 -40 -3 -39 -22 -54 -22 -18 0 17 -7 20 -40 20 -33 0 -40
-3 -40 -20 0 -17 -7 -20 -39 -20 -36 0 -40 -3 -43 -27 l-3 -28 -26 28 c-33 34
-73 36 -90 5 -7 -13 -11 -23 -10 -23 1 0 -1 -8 -4 -17 -6 -14 -19 -18 -56 -18
-42 0 -49 3 -49 20 0 17 7 20 40 20 33 0 40 3 40 20 0 19 -7 20 -90 20 l-90 0
0 -40 c0 -38 -2 -40 -30 -40 -20 0 -30 -5 -30 -15 0 -11 -11 -15 -40 -15 -33
0 -40 -3 -40 -20 0 -17 -7 -20 -40 -20 l-40 0 0 -4660 0 -4660 5284 0 5283 0
21 58 c11 31 24 71 27 87 4 17 16 57 26 90 11 33 24 76 30 95 11 35 44 127 60
165 5 11 18 47 30 80 11 33 23 67 26 75 3 8 5 24 4 35 -2 11 1 17 5 12 7 -7
63 107 64 131 0 7 4 20 9 30 41 76 61 296 32 349 -6 12 -13 48 -15 80 -2 32
-13 99 -25 148 -30 123 -38 166 -52 268 -9 71 -21 106 -60 188 -27 55 -77 167
-110 247 -33 81 -80 188 -104 238 -24 50 -47 104 -51 120 -4 16 -10 34 -14 39
-21 28 -59 212 -42 201 6 -3 10 26 11 77 5 184 5 185 30 209 l23 23 -13 -25
c-11 -23 -11 -24 4 -11 10 7 17 19 17 26 0 8 13 26 28 42 36 35 77 100 99 155
9 24 32 58 50 76 120 120 178 468 155 932 -8 161 -15 212 -37 295 -16 55 -33
129 -40 165 -7 36 -17 77 -23 92 -20 49 -79 96 -163 128 -59 22 -94 37 -121
51 -10 5 -25 9 -33 9 -9 0 -15 9 -15 24 0 13 -5 26 -10 28 -6 2 6 28 26 58
l36 54 3 491 c3 269 0 557 -5 639 -6 94 -6 152 -1 156 6 3 6 11 1 20 -6 8 -10
30 -10 48 0 18 -6 47 -14 65 -18 44 -29 136 -27 225 2 56 -1 77 -13 85 -11 9
-16 43 -21 142 -4 71 -8 131 -9 133 -2 1 -20 3 -40 4 -23 1 -36 6 -36 15 0 28
-48 63 -85 63 -19 0 -35 -4 -35 -10 0 -13 -77 -13 -82 0 -5 15 -308 15 -318 0
-6 -9 -12 -9 -29 -1 -21 12 -205 8 -263 -5 -18 -4 -28 -2 -28 5 0 6 -17 11
-40 11 -29 0 -40 -4 -40 -15 0 -11 -11 -15 -39 -15 -22 0 -41 -5 -43 -12 -4
-10 -10 -10 -32 0 -32 14 -126 16 -126 2 0 -5 -18 -10 -40 -10 -22 0 -40 5
-40 10 0 15 -77 12 -83 -2 -4 -9 -14 -4 -31 15 -14 15 -30 27 -36 27 -5 0 -10
7 -10 15 0 11 -11 15 -40 15 -33 0 -40 4 -40 19 0 24 -39 35 -60 16 -12 -11
-18 -11 -32 -1 -10 7 -15 15 -12 18 3 4 -13 16 -35 29 -23 12 -41 29 -41 36 0
7 -5 13 -11 13 -6 0 -8 -9 -3 -22 l6 -21 -27 22 -28 22 -27 -26 c-14 -14 -31
-25 -37 -25 -21 0 -43 -31 -43 -59 0 -40 -39 -77 -88 -86 -33 -5 -42 -11 -42
-27 0 -33 -30 -17 -56 30 -13 23 -24 51 -24 61 0 10 -18 43 -40 74 -46 66 -58
103 -110 320 -7 26 -16 47 -20 47 -5 0 -4 -13 1 -30 6 -16 9 -35 7 -42 -3 -7
0 -33 6 -58 6 -25 11 -63 11 -85 0 -40 0 -40 -35 -37 -57 6 -72 21 -71 74 0
10 -4 20 -9 23 -5 3 -7 12 -3 20 3 8 0 15 -5 15 -13 0 -8 -160 7 -209 15 -50
-1 -75 -44 -67 -19 4 -42 2 -52 -3 -10 -6 -33 -14 -52 -19 -46 -11 -50 -28 -8
-36 37 -7 83 -48 72 -65 -3 -6 -1 -12 4 -12 16 -2 23 -4 54 -17 34 -15 58 -16
37 -2 -13 8 -12 10 3 10 20 0 22 -13 6 -41 -7 -15 -7 -24 2 -35 8 -10 8 -14 0
-14 -6 0 -11 -4 -11 -10 0 -5 7 -7 15 -4 9 4 15 0 15 -10 0 -9 7 -16 15 -16
17 0 35 -38 28 -57 -3 -7 0 -13 6 -13 6 0 11 -9 11 -20 0 -11 -7 -20 -15 -20
-10 0 -15 -10 -15 -28 0 -15 -6 -34 -12 -41 -9 -10 -9 -12 -1 -7 6 3 14 2 18
-4 3 -5 0 -10 -7 -10 -10 0 -10 -2 1 -9 9 -6 11 -20 6 -50 -4 -22 -10 -41 -13
-41 -15 0 -102 82 -102 96 0 8 -6 14 -14 14 -7 0 -25 10 -40 21 -54 42 -37 8
33 -67 68 -73 82 -94 62 -94 -27 0 -221 247 -221 281 0 5 17 11 38 14 54 9 64
14 57 25 -14 23 42 7 74 -20 33 -30 61 -39 61 -21 0 5 -9 12 -19 16 -11 3 -22
12 -25 20 -3 8 -12 15 -21 15 -22 0 -19 27 5 40 35 19 22 36 -41 54 -75 20
-133 72 -123 110 6 26 8 26 -82 46 -43 9 -53 17 -67 45 -9 18 -19 50 -23 70
-7 37 -20 75 -64 185 -32 80 -52 119 -59 118 -3 0 -16 3 -29 7 -17 6 -20 11
-12 20 8 9 8 19 1 32 -5 10 -12 27 -16 37 -3 10 -8 16 -11 14 -8 -8 17 -137
27 -144 10 -6 2 -24 -10 -24 -9 0 -41 89 -41 113 0 21 -27 42 -33 25 -2 -7 -8
-9 -13 -5 -5 5 -1 14 9 21 21 16 22 30 3 45 -12 10 -15 8 -18 -9 -4 -27 -22
-27 -26 0 -2 13 -9 20 -17 16 -20 -7 -24 3 -13 35 5 16 16 29 24 29 8 0 14 5
14 10 0 6 -6 10 -14 10 -17 0 -31 31 -18 39 23 15 0 114 -35 149 -7 7 -13 19
-13 27 0 7 -13 16 -30 20 -16 4 -32 11 -35 16 -4 5 -15 9 -26 9 -10 0 -19 7
-19 15 0 22 -21 18 -27 -5 -3 -11 -12 -20 -19 -20 -8 0 -14 -7 -14 -15 0 -8
-17 -19 -42 -25 -93 -24 -208 -76 -208 -94 0 -8 -6 -16 -12 -18 -10 -4 -8 -14
7 -41 24 -44 55 -49 105 -14 42 27 41 39 -2 54 -25 9 -28 12 -11 12 14 1 21 6
17 14 -3 8 13 21 43 34 68 29 85 34 78 23 -8 -14 18 -13 32 1 18 18 47 2 68
-38 11 -21 32 -54 47 -74 15 -20 28 -45 28 -54 0 -17 -1 -17 -20 0 -10 9 -26
15 -34 12 -8 -3 -43 -2 -77 3 -35 5 -65 7 -68 5 -2 -3 3 -13 13 -24 35 -38 -6
-95 -43 -58 -9 9 -148 12 -629 11 -339 0 -630 -4 -645 -8 -27 -6 -28 -6 -23
26 3 19 16 42 31 53 35 29 31 38 -12 31 -21 -4 -59 -10 -85 -12 -27 -3 -48
-10 -48 -16 0 -5 -10 -8 -22 -6 -15 2 -24 11 -26 26 -3 18 2 23 28 29 20 3 36
15 42 29 13 27 28 32 28 8 0 -13 7 -15 30 -10 17 3 44 9 60 12 18 4 30 2 30
-4 0 -10 381 -8 540 3 36 2 97 5 135 6 48 1 62 3 45 8 -14 4 -62 6 -107 3 -46
-3 -83 -3 -84 -1 0 2 -3 42 -5 89 -2 47 -11 101 -19 120 -24 55 -67 133 -81
151 -8 8 -14 23 -14 31 0 9 -7 21 -15 28 -9 7 -14 15 -11 17 2 2 -15 23 -38
46 -23 23 -45 50 -49 59 -3 10 -17 18 -29 18 -13 0 -43 3 -66 6 -27 4 -48 2
-55 -5 -14 -14 -27 -14 -27 -1 0 6 7 10 15 10 11 0 8 10 -13 39 -23 33 -33 40
-70 43 -28 2 -48 -2 -57 -11 -13 -13 -17 -12 -35 4 -13 12 -20 14 -20 5 0 -10
-3 -10 -15 0 -8 7 -14 20 -13 29 2 10 -3 15 -14 13 -10 -2 -18 2 -18 8 0 6 8
14 18 18 9 4 27 14 39 21 22 15 22 15 1 32 -11 10 -33 21 -49 24 -16 4 -29 11
-29 16 0 5 -18 9 -40 9 -22 0 -40 -4 -40 -8 0 -7 -62 -42 -74 -42 -2 0 -11 16
-20 35 -20 42 -33 44 -47 8 -7 -16 -13 -23 -16 -15 -3 7 -22 12 -44 12 -36 0
-45 7 -40 34 1 5 -7 19 -19 31 -11 12 -17 24 -14 28 10 10 -13 15 -87 20 -36
3 -72 1 -79 -3 -9 -6 -18 -3 -26 7 -9 13 -11 -18 -10 -138 1 -152 -15 -266
-35 -253 -5 3 -9 -6 -9 -20 0 -26 -19 -38 -21 -13 0 6 -4 2 -9 -10 -6 -14 -18
-23 -32 -23 -32 -1 -138 -117 -122 -133 4 -3 -10 -12 -29 -21 -20 -8 -40 -23
-45 -33 -6 -10 -22 -25 -36 -33 -14 -7 -26 -18 -26 -24 -1 -16 -32 -51 -58
-65 -12 -6 -22 -18 -22 -26 0 -8 -7 -15 -15 -15 -20 0 -54 -29 -71 -62 -14
-26 -32 -47 -131 -156 -24 -25 -43 -49 -43 -53 0 -12 -43 -18 -60 -9 -21 11
-60 -18 -60 -44 0 -9 -8 -17 -17 -17 -53 -4 -67 -8 -93 -27 -17 -13 -50 -23
-85 -27 -31 -2 -82 -15 -113 -28 -41 -16 -81 -23 -142 -25 -47 -1 -107 -5
-135 -9 -27 -4 -54 -7 -60 -8 -5 0 -9 -6 -8 -13 2 -7 -8 -12 -22 -12 -14 0
-25 3 -25 8 0 4 -21 8 -47 9 -90 2 -208 19 -230 31 -12 7 -26 19 -31 28 -5 9
-24 16 -50 17 -23 0 -42 4 -42 7 0 4 -16 14 -35 23 -19 9 -35 23 -35 32 0 8
-9 15 -20 15 -11 0 -20 4 -20 8 0 5 -36 39 -80 77 -44 38 -80 75 -80 82 0 8
-11 25 -25 39 -14 14 -25 31 -25 39 0 7 -9 16 -19 20 -11 3 -25 21 -31 39 -5
18 -28 51 -49 74 l-39 42 -100 0 c-88 0 -101 2 -118 21 -10 12 -19 29 -20 38
-1 9 -2 26 -3 39 -1 27 -21 30 -21 2 0 -28 -14 -25 -43 10 -31 37 -37 37 -37
4 0 -24 -1 -24 -22 -10 -12 9 -30 16 -39 16 -13 0 -15 9 -12 53 3 38 2 48 -6
37 -7 -10 -11 -11 -11 -2 0 7 -13 12 -29 12 -16 0 -32 -6 -34 -12 -4 -10 -6
-10 -6 0 -1 6 -6 12 -11 12 -7 0 -7 -6 0 -19 5 -11 10 -31 10 -44 0 -13 9 -32
20 -42 20 -18 24 -43 14 -82 -5 -17 -16 -23 -57 -28 -48 -7 -52 -6 -79 24 -25
28 -28 39 -28 104 0 66 -6 95 -53 250 -12 41 -2 72 24 72 9 0 15 14 17 43 2
23 -1 42 -6 42 -6 0 -13 11 -16 25 -9 36 -26 31 -26 -7 0 -25 -3 -29 -12 -20
-6 6 -14 50 -16 97 -3 47 -8 88 -13 91 -5 3 -9 13 -9 23 0 11 -9 29 -19 42
-18 22 -27 24 -108 24 l-88 0 -3 42 c-4 56 20 73 105 73 l63 0 0 56 c0 46 3
57 18 61 14 3 18 13 17 38 -1 36 -17 61 -45 70 -28 9 -34 41 -14 74 16 26 16
34 4 71 -19 58 -30 64 -79 44 -23 -9 -44 -14 -47 -12 -10 11 9 36 30 42 25 6
25 13 6 96 -6 25 -17 79 -25 122 -15 85 -39 162 -61 195 -8 12 -14 33 -14 47
0 13 -7 31 -15 40 -8 8 -15 28 -15 45 0 28 -8 36 -32 32 -5 0 -8 6 -8 14 0 8
-4 15 -10 15 -5 0 -10 12 -10 28 0 30 -15 59 -23 45z m443 -1585 c0 -5 -7 -8
-15 -8 -15 0 -20 21 -8 33 7 7 23 -11 23 -25z m3074 -370 c15 -70 32 -173 38
-230 14 -130 20 -466 9 -493 -5 -11 -22 -49 -39 -85 -53 -117 -65 -151 -97
-280 -18 -74 -55 -196 -95 -320 -15 -47 -33 -106 -40 -132 -7 -26 -19 -53 -26
-59 -8 -6 -14 -16 -14 -21 0 -6 -11 -19 -25 -30 -14 -11 -25 -26 -25 -34 0 -8
-7 -17 -15 -20 -8 -4 -15 -10 -15 -14 0 -13 -113 -122 -154 -151 -20 -13 -39
-35 -43 -47 -3 -14 -17 -28 -34 -34 -29 -10 -40 -40 -19 -53 18 -11 11 -35
-10 -35 -11 0 -20 5 -20 10 0 15 -26 12 -39 -4 -6 -7 -45 -25 -85 -40 -63 -22
-81 -25 -122 -17 -27 5 -87 15 -134 21 -47 6 -99 16 -117 22 -28 10 -32 15
-26 37 7 29 60 101 74 101 5 0 9 7 9 15 0 8 9 15 20 15 12 0 31 6 43 14 12 8
55 17 96 21 43 4 89 16 109 27 19 10 40 17 47 14 7 -2 23 6 35 19 13 14 26 22
31 20 13 -9 59 14 59 30 0 8 9 15 20 15 11 0 20 7 20 15 0 8 5 15 11 15 5 0
17 17 26 38 8 20 21 44 28 52 7 8 15 31 18 50 18 108 37 201 45 217 5 10 10
68 11 128 1 61 4 119 7 130 4 16 3 17 -5 5 -26 -37 2 136 32 200 17 36 47 78
89 124 21 23 38 45 38 49 0 4 21 40 46 78 25 39 43 73 41 76 -3 3 -12 -4 -19
-16 -18 -30 -26 -26 -23 12 3 29 20 78 46 129 5 10 9 27 9 39 0 12 11 45 24
73 13 28 29 80 36 116 6 35 18 82 25 105 17 50 45 196 46 239 l0 31 14 -30 c7
-16 25 -87 39 -157z m-2664 -48 c0 -5 -4 -10 -9 -10 -6 0 -13 5 -16 10 -3 6 1
10 9 10 9 0 16 -4 16 -10z m3530 -107 c0 -21 -21 -15 -27 7 -3 11 -9 20 -15
20 -21 0 -58 -34 -58 -53 0 -19 1 -19 18 -4 21 19 47 23 37 6 -12 -19 -55 -30
-76 -19 -30 16 -23 37 21 61 34 19 38 25 28 42 -7 14 2 10 31 -13 23 -18 41
-39 41 -47z m970 -253 c0 -5 -9 -10 -20 -10 -11 0 -20 5 -20 10 0 6 9 10 20
10 11 0 20 -4 20 -10z m-1409 -33 c-10 -9 -11 -8 -5 6 3 10 9 15 12 12 3 -3 0
-11 -7 -18z m-264 -203 c6 -16 -32 -64 -52 -64 -25 0 -33 21 -18 51 16 32 59
41 70 13z m2104 -24 c6 -16 15 -30 19 -30 5 0 11 -15 15 -32 4 -18 16 -48 26
-66 11 -19 17 -38 14 -42 -3 -5 3 -15 15 -22 11 -7 20 -23 20 -37 0 -22 -3
-23 -37 -16 -65 12 -68 12 -75 1 -5 -7 -8 -3 -8 9 -1 19 -1 19 -15 1 -12 -16
-13 -11 -10 48 3 37 9 76 15 86 6 11 8 44 5 75 -6 61 0 71 16 25z m-1936 -230
c3 -5 1 -10 -4 -10 -6 0 -11 5 -11 10 0 6 2 10 4 10 3 0 8 -4 11 -10z m5 -51
c0 -5 -7 -9 -15 -9 -15 0 -20 12 -9 23 8 8 24 -1 24 -14z m2075 1 c3 -5 1 -10
-4 -10 -6 0 -11 5 -11 10 0 6 2 10 4 10 3 0 8 -4 11 -10z m635 -36 c0 -17 -8
-27 -25 -34 -32 -12 -31 -18 1 -30 36 -14 28 -46 -11 -43 -39 3 -53 20 -64 76
l-8 47 38 0 c21 0 41 5 44 10 10 16 25 1 25 -26z m-2720 -3 c0 -12 -20 -25
-27 -18 -7 7 6 27 18 27 5 0 9 -4 9 -9z m-20 -51 c0 -5 -5 -10 -11 -10 -5 0
-7 5 -4 10 3 6 8 10 11 10 2 0 4 -4 4 -10z m-10 -50 c0 -5 -4 -10 -10 -10 -5
0 -10 5 -10 10 0 6 5 10 10 10 6 0 10 -4 10 -10z m-10 -40 c0 -5 -4 -10 -10
-10 -5 0 -10 5 -10 10 0 6 5 10 10 10 6 0 10 -4 10 -10z m2790 -89 c0 -16 -4
-17 -40 -8 -22 6 -40 15 -40 19 0 4 18 8 40 8 32 0 40 -4 40 -19z m-2810 -5
c0 -3 -4 -8 -10 -11 -5 -3 -10 -1 -10 4 0 6 5 11 10 11 6 0 10 -2 10 -4z m-15
-46 c3 -5 1 -10 -4 -10 -6 0 -11 5 -11 10 0 6 2 10 4 10 3 0 8 -4 11 -10z
m1045 -9 c0 -11 -5 -23 -11 -27 -15 -9 -33 12 -26 30 9 23 37 20 37 -3z m1438
-14 c22 -17 13 -24 -33 -25 -34 -2 -45 2 -45 12 0 31 44 39 78 13z m372 -7 c0
-5 -4 -10 -9 -10 -6 0 -13 5 -16 10 -3 6 1 10 9 10 9 0 16 -4 16 -10z m-22
-33 c10 -11 7 -14 -17 -15 -29 -1 -47 20 -35 39 6 10 35 -3 52 -24z m-2838 13
c0 -5 -4 -10 -10 -10 -5 0 -10 5 -10 10 0 6 5 10 10 10 6 0 10 -4 10 -10z
m-10 -44 c0 -3 -4 -8 -10 -11 -5 -3 -10 -1 -10 4 0 6 5 11 10 11 6 0 10 -2 10
-4z m2841 -22 c12 -14 11 -16 -5 -13 -11 2 -21 10 -24 17 -5 17 13 15 29 -4z
m604 -7 c7 -27 -9 -74 -34 -102 -23 -25 -41 -78 -41 -119 0 -31 -67 -175 -97
-208 -11 -12 -24 -16 -42 -11 -64 15 -68 56 -11 141 23 34 40 72 40 88 1 47
25 137 38 142 7 2 12 8 12 14 0 6 17 26 37 44 45 41 90 46 98 11z m-6000 -47
c3 -6 -1 -7 -9 -4 -18 7 -21 14 -7 14 6 0 13 -4 16 -10z m3610 -430 c3 -5 -3
-10 -14 -10 -12 0 -24 0 -28 -1 -4 0 -9 4 -11 10 -5 14 45 15 53 1z m-944
-103 c-8 -8 -11 -5 -11 9 0 27 14 41 18 19 2 -9 -1 -22 -7 -28z m-881 4 c0 -6
-4 -13 -10 -16 -5 -3 -10 1 -10 9 0 9 5 16 10 16 6 0 10 -4 10 -9z m883 -141
c13 -45 17 -92 16 -197 -1 -91 -4 -125 -9 -99 -4 21 -12 41 -17 45 -15 9 -33
254 -19 263 8 5 7 11 -2 20 -15 15 -15 28 1 28 6 0 20 -27 30 -60z m-888 37
c23 0 48 3 54 7 14 9 41 0 41 -13 0 -5 -13 -18 -30 -28 -16 -9 -30 -21 -30
-25 0 -12 -63 -67 -76 -68 -7 0 -19 11 -28 25 -17 25 -16 26 16 40 l33 14 -32
1 c-23 0 -33 5 -33 15 0 20 22 45 34 38 5 -3 28 -6 51 -6z m196 -20 c-16 -16
-25 -1 -10 16 8 8 16 11 18 5 2 -5 -2 -15 -8 -21z m-41 -46 c0 -6 -4 -12 -8
-15 -5 -3 -7 -18 -4 -34 2 -16 -3 -42 -12 -58 -8 -16 -15 -23 -16 -16 0 19
-19 14 -45 -13 -28 -27 -32 -50 -10 -59 27 -10 47 5 41 30 -5 17 -2 24 9 24 8
0 15 -5 15 -11 0 -8 5 -8 15 1 8 7 15 9 15 4 0 -5 9 2 20 16 l20 25 -4 -45
c-3 -25 -8 -86 -12 -137 -4 -51 -10 -90 -14 -88 -17 10 -21 -48 -5 -71 13 -21
13 -24 1 -24 -8 0 -23 -12 -33 -26 -10 -14 -33 -41 -52 -61 -30 -31 -32 -36
-18 -50 12 -13 13 -20 4 -34 -9 -15 -9 -24 0 -38 7 -11 10 -34 6 -55 -4 -25 1
-47 15 -75 29 -54 20 -78 -31 -88 -27 -6 -43 -15 -45 -26 -2 -10 3 -17 11 -17
9 0 17 -3 19 -7 5 -12 76 -43 97 -43 24 0 48 -26 30 -32 -10 -3 -8 -11 4 -28
9 -14 17 -33 17 -42 0 -10 5 -27 11 -37 9 -14 8 -25 -5 -51 -22 -44 -20 -55 9
-74 31 -20 36 -82 8 -89 -15 -4 -15 -6 5 -12 23 -8 31 -48 12 -60 -18 -11 -1
-23 25 -17 18 3 25 0 25 -12 0 -9 -5 -16 -11 -16 -8 0 -10 -15 -6 -45 4 -29 2
-53 -6 -66 -10 -18 -9 -23 12 -40 21 -17 23 -23 13 -40 -14 -23 -16 -63 -2
-54 6 4 7 -1 3 -12 -4 -10 -12 -22 -20 -26 -7 -4 -13 -14 -13 -21 0 -8 -6 -19
-14 -25 -27 -23 -4 -60 37 -61 19 0 57 -34 57 -50 0 -6 -7 -13 -15 -16 -9 -4
-15 -20 -15 -43 -1 -39 -23 -80 -35 -62 -12 20 -26 11 -41 -25 -8 -20 -27 -47
-41 -60 l-25 -23 26 -7 c17 -4 26 -13 26 -25 0 -25 -20 -24 -27 1 -3 11 -14
20 -25 20 -14 0 -18 -5 -14 -17 7 -22 -3 -37 -28 -46 -16 -6 -18 -14 -13 -52
4 -25 3 -45 -2 -45 -5 0 -12 20 -15 45 -8 48 -20 58 -31 25 -3 -11 -10 -20
-15 -20 -5 0 -7 -6 -4 -14 3 -8 0 -18 -7 -22 -18 -11 -99 -13 -99 -3 0 5 -7 9
-15 9 -18 0 -20 -20 -2 -20 6 -1 2 -9 -10 -19 -13 -11 -23 -24 -23 -30 0 -5
-9 -16 -20 -24 -28 -20 -38 -55 -33 -114 4 -36 2 -53 -6 -53 -6 0 -11 17 -11
39 0 47 -19 66 -57 56 -30 -8 -43 -10 -83 -13 -24 -2 -50 -38 -50 -69 0 -7 -7
-13 -15 -13 -8 0 -15 -9 -15 -19 0 -17 7 -19 52 -18 44 2 53 -1 56 -16 6 -30
-52 -77 -94 -77 -19 0 -42 -7 -50 -15 -9 -8 -20 -15 -25 -15 -13 0 -11 24 3
38 16 16 -5 32 -43 32 -15 0 -32 7 -39 15 -15 18 -50 20 -50 3 0 -7 -3 -8 -9
-2 -5 5 -14 41 -20 79 l-11 70 30 26 c36 32 37 39 8 39 -36 1 -53 21 -56 68
-3 33 0 42 12 42 19 0 50 45 42 59 -4 5 3 19 15 30 l22 20 -26 6 c-32 8 -54
-2 -38 -18 16 -16 14 -25 -9 -37 -16 -9 -22 -6 -34 19 -18 34 -40 202 -31 231
3 11 2 20 -3 20 -14 0 -43 148 -45 228 -1 39 -5 74 -10 78 -12 13 -8 47 9 65
15 17 15 20 -3 43 -17 21 -19 33 -13 73 6 39 4 52 -11 72 -21 26 -26 96 -8
107 6 3 8 16 5 28 -6 24 36 222 54 256 6 12 13 40 16 63 7 59 14 79 35 103 27
29 11 74 -26 74 -14 0 -25 5 -25 10 0 6 7 10 15 10 16 0 45 28 46 45 1 18 33
46 69 62 l35 16 -32 10 c-53 16 -42 44 21 56 25 6 34 14 44 45 14 45 32 61 84
77 33 11 36 14 21 24 -14 11 -11 13 21 19 20 4 41 4 46 1 6 -3 10 -1 10 4 0 6
-9 11 -20 11 -18 0 -19 3 -10 20 14 27 29 25 40 -5 5 -14 16 -25 24 -25 13 0
22 26 30 90 2 14 4 28 5 33 0 4 10 7 20 7 30 0 35 19 6 26 -13 3 -22 10 -19
15 7 12 61 11 69 -1 3 -5 12 -10 18 -10 7 0 6 4 -3 10 -13 8 -13 10 2 10 22 0
101 34 119 51 8 8 34 30 59 50 25 20 56 46 69 58 23 20 35 25 54 22 4 0 7 8 7
19 0 13 7 20 20 20 11 0 20 -4 20 -9z m2504 -7 c66 -12 105 -26 149 -53 32
-20 75 -46 95 -58 21 -12 78 -60 127 -107 50 -47 95 -86 102 -86 6 0 56 17
110 38 134 53 150 56 179 37 13 -8 24 -19 24 -24 0 -5 -56 -33 -125 -62 -69
-29 -125 -56 -125 -60 0 -4 8 -10 19 -14 10 -3 32 -21 49 -39 17 -19 55 -50
84 -69 51 -35 112 -99 137 -144 19 -37 48 -144 55 -203 4 -30 9 -70 12 -87 4
-20 2 -33 -4 -33 -6 0 -13 26 -17 58 -6 57 -38 179 -56 217 l-9 20 5 -20 c26
-111 31 -190 24 -360 -4 -99 -8 -199 -8 -221 -1 -39 -3 -42 -35 -48 -22 -4
-51 -23 -80 -52 -42 -42 -49 -46 -83 -40 -21 3 -72 10 -113 17 -107 16 -172
44 -223 95 -25 24 -51 44 -60 44 -9 0 -19 5 -23 11 -5 8 -35 9 -100 5 -64 -5
-94 -4 -94 3 0 6 -19 11 -42 11 -56 1 -281 35 -299 45 -8 5 -20 17 -27 27 -7
10 -18 18 -23 18 -6 0 -22 9 -36 20 -27 21 -68 27 -78 10 -3 -5 -31 -10 -61
-10 -35 0 -69 -7 -94 -20 -42 -22 -102 -25 -165 -10 -22 5 -110 14 -195 20
-168 11 -171 11 -213 29 -22 8 -38 8 -67 0 -40 -12 -125 -5 -135 12 -10 15
-40 10 -61 -9 -13 -13 -26 -16 -39 -11 -11 4 -43 8 -71 8 -39 1 -53 -3 -58
-15 -10 -27 3 -34 64 -34 51 0 58 -2 53 -18 -11 -44 -110 -53 -163 -14 -58 44
-86 157 -60 238 34 103 99 144 250 159 30 3 89 10 130 15 97 13 838 6 905 -9
28 -5 84 -17 126 -25 41 -8 109 -24 150 -34 42 -11 101 -23 132 -27 32 -4 60
-11 63 -16 3 -5 9 -7 14 -4 5 3 40 -1 77 -9 154 -34 326 -45 358 -23 11 8 47
19 80 26 99 21 95 18 95 67 0 32 -4 44 -15 44 -8 0 -15 7 -15 16 0 9 -9 28
-19 43 -11 14 -31 49 -46 76 -43 83 -95 129 -160 145 -31 7 -68 24 -83 37 -15
12 -32 23 -38 23 -7 0 -19 11 -28 25 -9 14 -32 33 -51 42 -30 14 -41 15 -92 3
-32 -7 -72 -21 -89 -32 -25 -14 -52 -18 -130 -18 -123 0 -317 19 -325 33 -10
14 -151 10 -276 -8 -97 -15 -113 -20 -158 -54 -66 -50 -88 -61 -120 -61 -132
0 -169 221 -54 325 48 43 90 62 237 109 174 56 244 68 422 76 280 11 322 11
414 -6z m-2464 -40 c0 -8 -4 -12 -10 -9 -5 3 -10 10 -10 16 0 5 5 9 10 9 6 0
10 -7 10 -16z m-308 -29 c-3 -16 -11 -25 -23 -25 -30 0 -31 18 -2 33 16 8 29
15 29 16 1 1 -1 -10 -4 -24z m618 -50 c0 -8 -4 -15 -10 -15 -5 0 -10 7 -10 15
0 8 5 15 10 15 6 0 10 -7 10 -15z m-10 -45 c0 -5 -7 -10 -16 -10 -8 0 -12 5
-9 10 3 6 10 10 16 10 5 0 9 -4 9 -10z m-15 -50 c-3 -5 -10 -10 -16 -10 -5 0
-9 5 -9 10 0 6 7 10 16 10 8 0 12 -4 9 -10z m-15 -50 c0 -5 -4 -10 -10 -10 -5
0 -10 5 -10 10 0 6 5 10 10 10 6 0 10 -4 10 -10z m407 -12 c-3 -8 -6 -5 -6 6
-1 11 2 17 5 13 3 -3 4 -12 1 -19z m-417 -33 c0 -8 -7 -15 -15 -15 -26 0 -18
20 13 29 1 1 2 -6 2 -14z m450 -40 c3 -47 2 -52 -25 -69 l-24 -16 3 48 c5 64
5 64 16 57 6 -3 10 2 10 11 0 30 18 2 20 -31z m-1470 7 c-1 -19 -19 -30 -65
-35 -27 -3 -42 -3 -32 -1 9 3 15 10 12 15 -4 5 -4 12 -1 17 6 9 86 14 86 4z
m4810 -33 c8 -10 38 -25 65 -35 54 -17 85 -39 85 -60 0 -23 -17 -24 -43 -4
-20 16 -40 20 -100 20 -43 0 -79 5 -82 11 -4 5 -23 9 -43 8 -71 -5 -102 0
-102 16 0 17 -16 20 -26 4 -4 -7 -10 -7 -16 -1 -15 15 -1 32 25 32 12 0 38 9
57 19 45 25 157 19 180 -10z m-3805 11 c-3 -5 -10 -10 -16 -10 -5 0 -9 5 -9
10 0 6 7 10 16 10 8 0 12 -4 9 -10z m-5 -38 c0 -13 -12 -22 -22 -16 -10 6 -1
24 13 24 5 0 9 -4 9 -8z m2928 -59 c138 -87 218 -250 227 -463 l4 -95 -14 95
c-17 111 -47 215 -82 283 -26 53 -153 187 -176 187 -8 0 -22 9 -32 20 -18 20
-18 21 1 14 10 -4 43 -23 72 -41z m-2948 7 c0 -5 -5 -10 -11 -10 -5 0 -7 5 -4
10 3 6 8 10 11 10 2 0 4 -4 4 -10z m-10 -50 c0 -5 -5 -10 -11 -10 -5 0 -7 5
-4 10 3 6 8 10 11 10 2 0 4 -4 4 -10z m-5 -50 c-3 -5 -11 -10 -16 -10 -6 0 -7
5 -4 10 3 6 11 10 16 10 6 0 7 -4 4 -10z m-2485 -55 c10 -12 8 -16 -14 -25
-20 -7 -26 -16 -26 -39 0 -32 8 -40 57 -57 41 -15 57 -4 51 35 -3 20 -1 30 6
28 6 -2 12 -27 14 -55 3 -48 1 -53 -23 -64 -21 -9 -38 -9 -83 3 -49 13 -61 21
-85 57 -33 49 -30 91 6 117 27 19 81 19 97 0z m2475 5 c-3 -5 -11 -10 -16 -10
-6 0 -7 5 -4 10 3 6 11 10 16 10 6 0 7 -4 4 -10z m3292 -56 c-3 -3 -12 -4 -19
-1 -8 3 -5 6 6 6 11 1 17 -2 13 -5z m87 -20 c20 -13 19 -14 -12 -14 -30 0 -62
18 -62 35 0 10 50 -4 74 -21z m706 -37 c0 -52 -1 -54 -42 -77 -24 -13 -45 -26
-48 -29 -28 -32 -90 -35 -90 -5 0 9 -7 23 -16 31 -11 11 -14 26 -10 45 6 29 5
29 -27 23 -31 -7 -31 -6 -15 11 15 15 21 16 42 5 20 -11 29 -11 57 3 17 9 39
16 48 16 9 1 27 7 41 15 49 28 60 21 60 -38z m-6860 8 c0 -8 -4 -15 -10 -15
-5 0 -10 7 -10 15 0 8 5 15 10 15 6 0 10 -7 10 -15z m6295 -71 c61 -65 85 -96
85 -109 0 -6 5 -16 11 -22 15 -15 52 -124 45 -131 -4 -3 -6 1 -6 8 0 22 -71
153 -104 191 -17 20 -57 58 -88 85 -32 27 -58 52 -58 56 0 15 76 -37 115 -78z
m-3553 24 c-7 -7 -12 -8 -12 -2 0 14 12 26 19 19 2 -3 -1 -11 -7 -17z m3625
-14 c-3 -3 -12 -4 -19 -1 -8 3 -5 6 6 6 11 1 17 -2 13 -5z m-428 -281 c-1 -68
-2 -74 -11 -46 -9 28 -3 123 8 123 2 0 4 -35 3 -77z m-3352 20 c-3 -10 -5 -4
-5 12 0 17 2 24 5 18 2 -7 2 -21 0 -30z m3390 -40 c-3 -10 -5 -2 -5 17 0 19 2
27 5 18 2 -10 2 -26 0 -35z m908 37 c3 -5 1 -10 -4 -10 -6 0 -11 5 -11 10 0 6
2 10 4 10 3 0 8 -4 11 -10z m-425 -64 c0 -26 -6 -18 -14 19 -5 22 -4 26 4 15
5 -8 10 -24 10 -34z m-3853 12 c-3 -8 -6 -5 -6 6 -1 11 2 17 5 13 3 -3 4 -12
1 -19z m4303 12 c0 -5 -12 -10 -27 -10 -22 0 -25 2 -13 10 20 13 40 13 40 0z
m-4200 -20 c0 -5 -5 -10 -11 -10 -5 0 -7 5 -4 10 3 6 8 10 11 10 2 0 4 -4 4
-10z m3269 -265 c-4 -37 -6 2 -6 105 0 150 1 156 6 60 4 -58 4 -132 0 -165z
m928 243 c-3 -8 -6 -5 -6 6 -1 11 2 17 5 13 3 -3 4 -12 1 -19z m-5324 -51 c3
-8 1 -20 -4 -28 -6 -10 -9 -7 -9 14 0 29 5 35 13 14z m4894 -19 c-3 -7 -5 -2
-5 12 0 14 2 19 5 13 2 -7 2 -19 0 -25z m783 7 c0 -16 1 -16 -53 -19 -21 -2
-40 1 -43 6 -11 17 9 28 52 28 32 0 44 -4 44 -15z m-1323 -82 c-2 -16 -4 -3
-4 27 0 30 2 43 4 28 2 -16 2 -40 0 -55z m1248 38 c10 -18 -17 -23 -33 -7 -15
15 -15 16 5 16 12 0 24 -4 28 -9z m532 -17 c-3 -3 -12 -4 -19 -1 -8 3 -5 6 6
6 11 1 17 -2 13 -5z m21 -36 c-3 -24 -36 -33 -51 -13 -4 5 -5 -10 -1 -35 l6
-45 -21 33 c-12 18 -21 38 -21 45 0 15 36 34 68 36 19 1 23 -3 20 -21z m-395
-24 c11 -11 -5 -34 -24 -34 -10 0 -19 2 -19 4 0 2 -3 11 -6 20 -5 12 0 16 18
16 14 0 27 -3 31 -6z m66 -30 c14 -14 107 -66 208 -115 145 -70 192 -98 229
-136 26 -26 42 -49 36 -51 -6 -2 -53 22 -103 53 -92 57 -229 125 -251 125 -6
0 -19 6 -27 14 -9 7 -44 28 -79 46 -71 37 -73 39 -65 68 7 29 22 27 52 -4z
m-1480 -78 c-9 -8 -10 -2 -5 29 3 22 7 47 8 55 1 8 3 -5 5 -29 3 -26 -1 -48
-8 -55z m1685 88 c25 -9 19 -24 -9 -24 -14 0 -25 4 -25 9 0 5 -8 12 -17 14
-12 3 -8 5 9 6 14 0 33 -2 42 -5z m-3439 -32 c33 -7 123 -17 200 -22 77 -5
192 -19 255 -30 63 -12 153 -28 200 -36 96 -16 219 -39 330 -60 87 -16 178
-20 235 -10 46 8 62 -1 132 -73 45 -47 53 -71 28 -91 -8 -7 -15 -18 -15 -25 0
-12 -38 -25 -85 -30 -55 -6 -253 -6 -350 -1 -60 3 -137 7 -170 7 -33 1 -71 7
-85 14 -27 13 -36 13 -145 -5 -95 -15 -257 -28 -272 -23 -7 3 -13 1 -13 -5 0
-12 -67 1 -120 23 -19 8 -71 19 -115 24 -127 17 -186 29 -209 44 -12 8 -36 18
-54 22 -18 3 -37 15 -42 25 -6 11 -23 27 -40 36 -16 10 -35 31 -42 48 -6 16
-14 24 -16 18 -5 -17 -77 -15 -92 3 -7 8 -16 13 -20 10 -4 -3 -11 2 -14 11 -3
8 -10 12 -16 9 -15 -9 -12 48 4 71 13 18 21 19 97 13 67 -6 85 -5 94 7 30 41
195 54 340 26z m4405 -121 c0 -10 -7 -22 -16 -25 -8 -3 -13 -2 -11 2 2 4 7 15
10 25 8 23 17 22 17 -2z m-2650 -60 c0 -6 -4 -13 -10 -16 -5 -3 -10 1 -10 9 0
9 5 16 10 16 6 0 10 -4 10 -9z m-2245 -39 c6 -4 12 -17 12 -29 2 -26 -22 -21
-37 7 -13 25 2 39 25 22z m359 -253 c-3 -5 -12 -9 -20 -9 -8 0 -14 -4 -14 -10
0 -15 -26 -12 -40 5 -7 8 -24 16 -39 16 -21 1 -20 3 9 8 45 8 112 2 104 -10z
m-1616 -480 c-2 -6 -8 -10 -13 -10 -5 0 -11 4 -13 10 -2 6 4 11 13 11 9 0 15
-5 13 -11z m192 -29 c0 -11 -6 -20 -14 -20 -18 0 -29 16 -21 30 11 18 35 11
35 -10z m60 -55 c-7 -8 -23 -15 -36 -15 -15 0 -24 6 -24 15 0 11 11 15 36 15
31 0 35 -2 24 -15z m-125 -45 c-16 -31 -35 -48 -35 -31 0 6 -20 11 -45 11 -37
0 -45 3 -45 19 0 27 24 43 53 36 14 -4 34 -2 44 3 30 17 46 -4 28 -38z m-143
-55 l-4 -45 -47 0 c-42 -1 -48 -4 -73 -40 -26 -37 -68 -55 -68 -29 0 15 20 51
42 76 11 12 17 26 13 32 -3 6 0 11 8 11 8 0 17 -9 20 -21 7 -27 24 -17 32 21
5 24 12 29 43 33 20 2 37 4 37 5 0 1 -1 -18 -3 -43z m155 -36 c-28 -26 -67
-39 -67 -23 0 3 16 21 36 40 28 26 40 31 50 23 11 -9 7 -17 -19 -40z m-116
-25 c11 -14 10 -19 -10 -35 -12 -10 -20 -23 -16 -29 3 -6 0 -7 -9 -4 -12 5
-16 0 -16 -18 0 -33 9 -40 27 -23 8 8 28 15 45 15 30 0 30 -1 15 -18 -10 -10
-14 -21 -11 -25 9 -8 -35 -29 -46 -22 -6 4 -25 -3 -44 -14 -18 -12 -36 -21
-40 -21 -13 0 -5 48 9 54 8 3 15 15 15 27 0 17 -5 20 -21 16 -26 -7 -36 17
-19 49 11 19 21 24 52 24 31 0 38 3 38 20 0 24 13 26 31 4z m-268 -124 c-4
-17 0 -20 25 -20 33 0 44 -15 31 -42 -7 -12 -4 -20 8 -26 12 -7 -1 -10 -45
-11 -66 -1 -74 7 -42 39 11 11 20 25 20 30 0 6 -9 10 -20 10 -23 0 -26 10 -8
28 19 19 37 14 31 -8z m144 -16 c-3 -3 -12 -4 -19 -1 -8 3 -5 6 6 6 11 1 17
-2 13 -5z m-80 -111 c4 -12 -35 -29 -44 -19 -8 8 18 37 30 33 6 -2 12 -8 14
-14z m3033 -13 c0 -5 -5 -10 -11 -10 -5 0 -7 5 -4 10 3 6 8 10 11 10 2 0 4 -4
4 -10z m-3210 -25 c0 -9 -9 -15 -21 -15 -18 0 -19 2 -9 15 7 8 16 15 21 15 5
0 9 -7 9 -15z m6036 -603 c-18 -16 -18 -16 -6 6 6 13 14 21 18 18 3 -4 -2 -14
-12 -24z m-5806 -402 c0 -5 -4 -10 -10 -10 -5 0 -10 5 -10 10 0 6 5 10 10 10
6 0 10 -4 10 -10z m460 -167 c0 -9 -32 -43 -40 -43 -13 0 -18 36 -8 54 7 12
13 14 29 6 10 -6 19 -14 19 -17z m22 -110 c12 -11 18 -30 18 -59 0 -50 -4 -54
-47 -42 -30 8 -33 12 -33 48 0 22 5 40 10 40 6 0 10 7 10 15 0 20 19 19 42 -2z
m-178 -350 c-7 -16 -14 -35 -15 -43 0 -8 -6 1 -12 20 -13 37 -7 50 25 50 15 0
15 -3 2 -27z m-44 -157 c0 -8 -4 -18 -10 -21 -5 -3 -10 -4 -10 -1 0 2 -3 11
-6 20 -4 11 -1 16 10 16 9 0 16 -6 16 -14z m-63 -89 c-28 -24 -48 -5 -23 22
14 16 21 17 31 8 10 -9 8 -15 -8 -30z m537 -57 c-13 -27 -24 -66 -24 -85 0
-21 -8 -43 -18 -53 -10 -10 -21 -26 -25 -35 -3 -9 -24 -27 -46 -41 -22 -15
-40 -33 -40 -43 1 -18 -8 -75 -17 -121 -3 -16 -10 -22 -20 -18 -8 3 -13 2 -10
-3 3 -4 -10 -23 -29 -41 -47 -46 -65 -30 -36 31 12 23 21 51 21 61 0 10 7 21
15 24 8 4 13 10 10 15 -3 4 3 13 14 18 17 10 46 81 65 164 4 15 13 27 21 27
19 0 45 39 45 68 0 24 21 52 38 52 5 0 15 7 22 15 7 8 18 15 25 15 9 0 6 -15
-11 -50z m-114 -280 c0 -5 -5 -10 -11 -10 -5 0 -7 5 -4 10 3 6 8 10 11 10 2 0
4 -4 4 -10z m-180 -166 c0 -22 -2 -25 -15 -14 -12 10 -13 16 -4 26 16 20 19
18 19 -12z m249 -126 c9 -25 4 -51 -9 -43 -5 3 -13 -3 -19 -12 -9 -16 -10 -15
-11 7 0 35 11 70 21 70 6 0 13 -10 18 -22z m-50 -104 c-9 -11 -13 -35 -11 -70
4 -50 2 -54 -22 -64 -20 -7 -26 -16 -26 -39 0 -23 -6 -32 -30 -43 -29 -13 -40
-28 -20 -28 6 0 10 -6 10 -13 0 -18 -37 -57 -54 -57 -22 0 -30 49 -11 69 8 10
15 21 15 25 0 5 14 26 32 49 18 22 33 47 33 56 1 9 2 25 3 36 2 23 79 111 89
102 3 -4 0 -14 -8 -23z m-179 -340 c0 -13 6 -24 13 -24 6 -1 2 -9 -10 -19 -13
-11 -23 -25 -23 -32 0 -8 -11 -25 -24 -39 -51 -52 -86 -93 -86 -101 0 -5 -4
-9 -10 -9 -16 0 -12 37 5 44 8 3 15 17 15 31 0 25 46 105 60 105 4 0 15 18 25
40 19 42 35 44 35 4z"/>
<path d="M7341 7644 c0 -11 3 -14 6 -6 3 7 2 16 -1 19 -3 4 -6 -2 -5 -13z"/>
<path d="M7316 7583 c-6 -14 -5 -15 5 -6 7 7 10 15 7 18 -3 3 -9 -2 -12 -12z"/>
<path d="M7360 7561 c0 -7 -4 -10 -9 -7 -5 4 -7 -4 -3 -16 l5 -22 9 24 c5 12
6 25 3 28 -3 3 -5 0 -5 -7z"/>
<path d="M7310 7539 c0 -6 7 -17 15 -25 16 -16 19 -7 9 20 -7 18 -24 22 -24 5z"/>
<path d="M4566 6010 c-27 -17 -27 -18 -7 -25 25 -8 81 3 81 15 0 8 -33 31 -42
29 -2 0 -16 -9 -32 -19z"/>
<path d="M4391 5833 c-5 -11 -6 -24 -3 -31 10 -15 57 8 57 28 0 23 -42 24 -54
3z"/>
<path d="M4366 5731 c-4 -7 -5 -15 -2 -18 9 -9 19 4 14 18 -4 11 -6 11 -12 0z"/>
<path d="M4303 5634 c-3 -8 1 -22 10 -31 13 -14 16 -13 22 6 3 11 14 21 23 22
14 0 13 2 -3 9 -31 13 -45 12 -52 -6z"/>
<path d="M4198 5553 c7 -3 16 -2 19 1 4 3 -2 6 -13 5 -11 0 -14 -3 -6 -6z"/>
<path d="M4168 5486 c-16 -13 -28 -31 -28 -40 0 -15 7 -16 48 -10 26 3 49 8
51 10 7 7 -22 64 -33 64 -6 0 -23 -11 -38 -24z"/>
<path d="M4240 5489 c0 -5 5 -7 10 -4 6 3 10 8 10 11 0 2 -4 4 -10 4 -5 0 -10
-5 -10 -11z"/>
<path d="M4535 5246 l-28 -26 24 -9 c18 -6 25 -5 27 5 2 8 10 14 18 14 18 0
18 14 0 29 -11 9 -20 6 -41 -13z"/>
<path d="M4020 5195 c0 -8 7 -15 15 -15 8 0 15 7 15 15 0 8 -7 15 -15 15 -8 0
-15 -7 -15 -15z"/>
<path d="M4626 5165 c-3 -8 -1 -15 4 -15 6 0 10 7 10 15 0 8 -2 15 -4 15 -2 0
-6 -7 -10 -15z"/>
<path d="M4425 5100 c-7 -12 3 -50 13 -50 4 0 16 7 26 15 16 12 17 17 6 30
-14 17 -36 20 -45 5z"/>
<path d="M4500 4980 c0 -5 6 -10 14 -10 8 0 18 5 21 10 3 6 -3 10 -14 10 -12
0 -21 -4 -21 -10z"/>
<path d="M3996 4224 c-9 -23 -8 -42 2 -28 4 6 21 18 37 27 l30 16 -31 1 c-20
0 -34 -6 -38 -16z"/>
<path d="M3627 10303 c-5 -7 -17 -13 -28 -13 -23 0 -40 -14 -59 -49 -10 -20
-10 -25 4 -33 18 -10 22 -43 6 -53 -5 -3 -10 -16 -10 -29 0 -12 -5 -27 -12
-34 -6 -6 -9 -15 -5 -18 12 -12 37 5 50 33 20 47 28 51 66 39 19 -6 36 -18 38
-27 3 -10 11 -20 19 -23 17 -7 76 18 94 38 7 9 18 16 24 16 7 0 23 11 35 24
18 19 20 28 13 43 -6 10 -8 31 -5 47 l6 29 -95 -6 c-52 -3 -102 -9 -110 -12
-12 -5 -17 0 -20 17 -2 16 -6 19 -11 11z m171 -70 c2 -8 -5 -13 -17 -13 -12 0
-21 6 -21 16 0 18 31 15 38 -3z"/>
<path d="M4580 10306 c0 -9 30 -14 35 -6 4 6 -3 10 -14 10 -12 0 -21 -2 -21
-4z"/>
<path d="M4625 10280 c3 -5 8 -10 11 -10 2 0 4 5 4 10 0 6 -5 10 -11 10 -5 0
-7 -4 -4 -10z"/>
<path d="M2420 10211 c-92 -33 -170 -103 -170 -153 0 -22 18 -32 34 -19 7 6
67 11 137 12 147 2 209 11 221 33 6 11 23 16 51 16 23 0 49 5 57 11 12 8 8 9
-15 7 -28 -3 -31 0 -42 46 -7 27 -18 53 -24 57 -23 14 -202 7 -249 -10z"/>
<path d="M4670 10198 c0 -26 18 -41 36 -33 13 5 15 9 7 12 -7 3 -13 11 -13 19
0 8 -7 14 -15 14 -8 0 -15 -6 -15 -12z"/>
<path d="M3470 10180 c0 -5 5 -10 10 -10 6 0 10 5 10 10 0 6 -4 10 -10 10 -5
0 -10 -4 -10 -10z"/>
<path d="M2733 10053 c9 -2 23 -2 30 0 6 3 -1 5 -18 5 -16 0 -22 -2 -12 -5z"/>
<path d="M2614 10032 c-21 -2 -35 -11 -44 -28 -7 -13 -21 -24 -31 -24 -24 0
-80 -33 -76 -45 2 -5 16 -9 30 -7 46 6 30 -14 -20 -25 -84 -19 -109 -14 -80
16 10 11 6 12 -23 8 -67 -10 -111 -25 -145 -51 -18 -14 -41 -26 -49 -26 -9 0
-16 -3 -16 -8 0 -4 -10 -18 -23 -32 -55 -61 -57 -67 -34 -123 25 -64 37 -79
53 -73 8 3 17 -2 22 -10 7 -13 13 -13 35 -3 15 7 27 15 27 19 0 6 57 22 75 21
3 -1 21 8 40 19 20 11 47 20 60 20 14 0 25 4 25 9 0 14 58 40 102 47 40 7 42
11 39 77 -2 31 0 37 18 37 25 0 68 -18 100 -42 25 -19 101 -25 101 -8 0 5 7 7
16 3 14 -5 15 -1 9 25 -3 18 -3 32 2 32 14 0 3 74 -13 86 -12 10 -11 13 8 17
39 11 4 30 -59 34 -70 4 -87 9 -80 26 5 12 -12 15 -69 9z m-109 -192 c3 -5 -1
-10 -9 -10 -9 0 -16 5 -16 10 0 6 4 10 9 10 6 0 13 -4 16 -10z"/>
<path d="M2850 10025 c0 -22 51 -40 62 -23 16 26 8 38 -27 38 -25 0 -35 -4
-35 -15z"/>
<path d="M2473 9599 c-18 -5 -35 -14 -38 -19 -8 -13 -115 -13 -115 -1 0 5 -9
7 -20 4 -11 -3 -20 -13 -20 -23 0 -18 31 -27 105 -31 92 -4 123 1 146 25 13
13 29 21 37 18 10 -3 13 0 10 9 -3 8 -10 14 -15 14 -6 0 -15 3 -19 8 -9 9 -30
8 -71 -4z"/>
<path d="M720 9561 c0 -10 26 -9 36 2 4 4 -2 7 -14 7 -12 0 -22 -4 -22 -9z"/>
<path d="M3993 9395 c-13 -14 25 -47 148 -128 31 -20 59 -43 63 -52 3 -8 12
-15 21 -15 8 0 15 -4 15 -10 0 -5 9 -10 20 -10 15 0 20 7 20 25 0 14 -4 25
-10 25 -5 0 -10 6 -10 14 0 8 -19 29 -41 48 -23 18 -47 39 -54 46 -8 6 -17 12
-21 12 -4 0 -21 11 -38 23 -39 30 -96 41 -113 22z"/>
<path d="M3561 9349 c-13 -5 -41 -23 -62 -40 -26 -20 -57 -34 -92 -39 -28 -5
-72 -13 -97 -19 -25 -5 -47 -8 -50 -6 -3 2 -33 6 -66 9 -62 6 -101 -2 -219
-43 -43 -16 -71 -20 -102 -15 -47 7 -55 -1 -55 -53 -1 -49 -8 -73 -23 -73 -8
0 -15 6 -15 13 -1 19 -60 -55 -60 -75 0 -10 -4 -18 -8 -18 -5 0 -15 -18 -22
-40 -7 -22 -18 -40 -24 -40 -34 0 -63 -148 -39 -195 6 -11 18 -46 27 -77 10
-32 21 -58 26 -58 5 0 16 -15 25 -34 22 -47 88 -116 110 -116 10 0 31 15 48
33 l29 32 -7 -35 -7 -35 21 23 c21 22 57 23 86 2 6 -4 23 -10 39 -14 15 -4 35
-14 43 -21 8 -8 25 -15 38 -15 32 0 118 29 127 43 7 11 54 19 199 36 82 10
178 45 195 72 3 6 20 9 38 8 36 -3 76 8 76 22 0 5 -17 7 -37 4 -21 -3 -56 -7
-77 -9 -22 -1 -44 -10 -51 -19 -7 -10 -24 -17 -38 -17 -23 0 -25 4 -24 33 2
28 -1 32 -25 35 -16 2 -28 -1 -28 -7 0 -6 -9 -11 -20 -11 -11 0 -20 -6 -20
-12 0 -7 -7 -22 -15 -32 -13 -17 -19 -18 -54 -8 -51 16 -64 32 -51 66 10 28
46 36 68 14 9 -9 12 -7 12 8 0 47 108 95 145 64 17 -14 17 -15 33 23 7 16 21
31 32 34 11 3 20 10 20 15 0 7 15 8 39 4 23 -3 59 0 90 10 43 12 59 13 88 3
30 -10 38 -9 47 3 6 8 32 18 58 22 41 6 47 5 53 -13 9 -29 -1 -41 -35 -41 -28
0 -46 -22 -34 -42 16 -26 185 47 244 106 60 60 68 70 75 99 4 15 13 27 21 27
18 0 34 32 34 69 0 40 -9 61 -26 61 -8 0 -18 8 -21 18 -9 24 -34 41 -60 42
-13 0 -23 4 -23 9 0 5 -18 11 -40 13 -44 4 -48 -1 -53 -67 -2 -29 20 -43 34
-21 16 21 39 -4 39 -43 0 -38 -1 -39 -49 -55 -30 -10 -84 -16 -136 -16 -47 0
-94 -4 -104 -10 -10 -5 -29 -11 -42 -14 -13 -3 -42 -10 -64 -16 -90 -25 -216
-49 -310 -59 -163 -18 -196 -27 -305 -80 -57 -28 -109 -51 -116 -51 -14 0 -24
32 -24 75 0 27 7 35 56 63 31 18 61 32 68 32 7 0 35 11 62 26 27 14 63 27 79
29 17 2 71 10 122 19 83 13 95 18 122 48 17 18 37 47 45 63 9 19 32 40 58 52
61 31 165 150 170 194 l3 34 -95 2 c-52 1 -106 -2 -119 -8z m-696 -306 c39
-18 48 -40 49 -112 1 -42 -1 -45 -33 -56 -19 -6 -37 -17 -39 -25 -24 -72 -108
-60 -95 15 9 52 34 125 44 125 5 0 9 9 9 20 0 17 17 48 27 50 1 0 18 -8 38
-17z"/>
<path d="M5221 9224 c0 -11 3 -14 6 -6 3 7 2 16 -1 19 -3 4 -6 -2 -5 -13z"/>
<path d="M3863 8697 c1 -39 -5 -47 -43 -57 -22 -6 -48 -10 -57 -8 -21 4 -28
-18 -8 -26 26 -10 145 52 145 74 0 5 -8 14 -19 19 -14 8 -19 7 -18 -2z"/>
<path d="M3800 8690 c0 -5 5 -10 10 -10 6 0 10 5 10 10 0 6 -4 10 -10 10 -5 0
-10 -4 -10 -10z"/>
<path d="M3610 8615 c0 -21 27 -30 45 -15 19 16 19 30 1 30 -8 0 -17 -8 -19
-17 -4 -17 -5 -17 -6 0 -1 21 -21 23 -21 2z"/>
<path d="M2144 8559 c-3 -6 -1 -16 5 -22 8 -8 11 -5 11 11 0 24 -5 28 -16 11z"/>
<path d="M6192 8409 c2 -7 10 -15 17 -17 8 -3 12 1 9 9 -2 7 -10 15 -17 17 -8
3 -12 -1 -9 -9z"/>
<path d="M3737 8343 c-9 -8 -83 -20 -197 -32 -47 -5 -94 -12 -105 -15 -11 -2
-32 -7 -47 -11 -24 -5 -28 -10 -28 -40 0 -21 -7 -39 -17 -47 -18 -13 -63 -73
-63 -83 0 -3 5 -5 11 -5 6 0 18 -9 27 -21 14 -17 24 -19 60 -13 24 4 50 13 58
21 12 12 18 12 29 3 10 -8 28 -10 52 -5 23 4 32 9 24 14 -20 13 69 31 152 31
81 0 95 9 110 72 4 15 14 33 22 42 22 22 18 44 -12 71 -27 24 -63 32 -76 18z"/>
<path d="M6270 8255 c0 -8 5 -15 10 -15 6 0 10 7 10 15 0 8 -4 15 -10 15 -5 0
-10 -7 -10 -15z"/>
<path d="M6300 8260 c0 -5 5 -10 10 -10 6 0 10 5 10 10 0 6 -4 10 -10 10 -5 0
-10 -4 -10 -10z"/>
<path d="M6300 8206 c0 -8 5 -18 10 -21 6 -3 10 1 10 9 0 8 -4 18 -10 21 -5 3
-10 -1 -10 -9z"/>
<path d="M6280 8174 c0 -8 5 -12 10 -9 6 3 10 10 10 16 0 5 -4 9 -10 9 -5 0
-10 -7 -10 -16z"/>
<path d="M6401 8153 c-1 -43 -1 -43 -38 -44 l-38 -2 40 -7 c22 -4 31 -8 21 -9
-11 0 -17 -3 -14 -6 3 -3 23 -1 44 4 29 7 33 9 14 10 -24 1 -26 4 -22 35 2 19
2 41 -1 48 -3 7 -6 -6 -6 -29z"/>
<path d="M6302 8114 c-7 -8 -8 -14 -3 -14 10 0 25 19 20 25 -2 1 -10 -3 -17
-11z"/>
<path d="M7568 8053 c7 -3 16 -2 19 1 4 3 -2 6 -13 5 -11 0 -14 -3 -6 -6z"/>
<path d="M6985 8040 c3 -5 8 -10 11 -10 2 0 4 5 4 10 0 6 -5 10 -11 10 -5 0
-7 -4 -4 -10z"/>
<path d="M5890 8030 l-25 -8 28 -1 c15 -1 27 4 27 9 0 6 -1 10 -2 9 -2 -1 -14
-5 -28 -9z"/>
<path d="M7285 7880 c-4 -6 6 -10 22 -10 22 0 25 2 13 10 -19 12 -27 12 -35 0z"/>
<path d="M7377 7859 c4 -13 8 -18 11 -10 2 7 -1 18 -6 23 -8 8 -9 4 -5 -13z"/>
<path d="M7950 7681 c0 -5 5 -13 10 -16 6 -3 10 -2 10 4 0 5 -4 13 -10 16 -5
3 -10 2 -10 -4z"/>
<path d="M7958 7625 c2 -14 8 -25 12 -25 4 0 5 11 2 25 -2 14 -8 25 -12 25 -4
0 -5 -11 -2 -25z"/>
<path d="M8015 7570 c-3 -5 1 -10 10 -10 9 0 13 5 10 10 -3 6 -8 10 -10 10 -2
0 -7 -4 -10 -10z"/>
<path d="M8364 7565 c-18 -14 -18 -14 9 -15 17 0 27 5 27 15 0 19 -11 19 -36
0z"/>
<path d="M7669 7493 c-16 -37 -16 -37 15 -66 48 -45 66 -54 129 -67 49 -10 61
-9 75 3 9 8 26 17 37 22 13 5 15 9 8 12 -18 7 -16 23 3 23 8 0 12 5 9 10 -3 6
-17 7 -29 4 -35 -8 -97 12 -131 43 -27 26 -76 53 -93 53 -4 0 -14 -17 -23 -37z"/>
<path d="M7870 6954 c-19 -7 -41 -11 -47 -9 -16 5 -17 -17 -2 -32 6 -6 26 -7
52 -2 26 4 44 3 48 -3 9 -15 19 17 12 41 -6 24 -13 24 -63 5z"/>
<path d="M7990 6940 c0 -5 11 -10 25 -10 14 0 25 5 25 10 0 6 -11 10 -25 10
-14 0 -25 -4 -25 -10z"/>
</g>
</svg>
